<svg version="1" xmlns="http://www.w3.org/2000/svg" width="346.667" height="346.667" viewBox="0 0 260.000000 260.000000"><path d="M113.5 1.5c-.3.8-.7 2.2-1 3.1-.4 1.2-.9 1.3-1.8.6-.7-.6-1.9-.7-2.6-.3-1.1.7-1 1.4.4 3.5 1 1.4 1.5 2.7 1.1 2.7-.3.1-.9.2-1.3.3-1.7.3-6.3 3.9-6.3 4.8 0 .6 1.1 1.9 2.5 3 2.6 2 3.4 5.7 1.3 6-.7 0-1.8.2-2.4.2-.6.1-1.8.7-2.7 1.5-.9.7-2.1 1-2.7.6-.5-.3-2.2.7-3.6 2.2l-2.7 2.8.7-2.8c.5-2 .3-2.7-.9-2.7-.8 0-1.5-.9-1.5-2 0-2.2-1.9-2.7-3.7-.9-.7.7-1.2.3-1.7-1.5-.7-3-4-3.5-5.1-.9-.6 1.7-.7 1.7-1.9 0-1.5-2-3.6-2.3-3.6-.5 0 .9-.3.9-1.1.1-1.7-1.7-7.9 3.5-7.9 6.4 0 2-.5 2.3-4 2.3-3.1 0-4 .4-4 1.7 0 1-.7 2.6-1.5 3.7-1.2 1.6-1.1 2.3.5 5.3 1.5 2.8 1.6 4 .7 6-.8 1.9-.7 3 .5 5.1.8 1.5 1.4 3.5 1.3 4.5-.2 1.2 1 2.6 3.6 4.3 2.2 1.3 3.7 2.9 3.4 3.4-.3.5-.1 1.8.5 2.9.8 1.6 1.9 1.9 4.8 1.7 5.3-.4 10.2 1.8 10.2 4.7 0 2.1-.4 2.3-3.1 1.9-2.7-.4-3.6.1-6.3 3.3-2.6 3-3.6 3.6-5.4 3.1-1.2-.4-2.2-1.5-2.2-2.5s-.7-2.4-1.5-3.1c-.8-.7-1.5-1.8-1.5-2.5 0-.8-2.5-1.4-7.2-1.9-6-.5-7.7-1-9.4-3-2.6-3-5.1-3.7-11.8-3.8-6.2-.1-8 .7-6.7 3 1.1 2-2.8 7.9-4.1 6-.5-1-1.1-.8-2.1.6-.8 1.1-1.9 1.6-2.6 1.2-.7-.4-1.5.3-2.1 1.9-.9 2.2-1.5 2.6-3.5 2.1-2.3-.6-3 .1-2.6 2.6 0 .5-.6.8-1.4.8-1.8 0-1.9 2.3-.4 5.2.9 1.7.8 1.9-.9 1.4-1.5-.5-2.5.1-4.1 2.7C-.5 96.6-.6 98 2 98c1.1 0 2 .6 2 1.4 0 .7 1 2.5 2.1 4 1.6 2 1.9 3 1 3.9-.6.6-1.1 2.4-1.1 4 0 2.3-.3 2.7-1.9 2.2-1.6-.5-1.8-.1-1.6 2.7.2 1.8.3 4.3.4 5.6.1 1.9.6 2.2 2.9 2 2.6-.3 2.7-.1 3 4.7.4 5.5 1.8 7 6.7 7 2.1 0 3.8-.9 5.4-2.8 2.4-2.9 4.6-3.1 4.6-.6.1.8 1 2.9 2 4.7 1.7 2.7 2.5 3.2 4.7 2.8 1.6-.3 2.9 0 3.2.7.3.9.6.9 1.3 0 .5-.6 2.1-1.6 3.6-2.2 1.7-.7 2.8-1.8 2.9-3.3 0-1.3.2-2.8.3-3.3.2-.6.3-1.4.4-1.9 0-.5.8-.3 1.6.4 1.1.9 1.4 2.2 1 4.1-.7 3-.2 3.6 4.2 4.4 2.5.4 3.7-.1 6.3-2.5 2.8-2.6 3.4-2.8 4.6-1.5 1.3 1.2 1.3 2.1.3 5.5-.7 2.2-1.4 3.8-1.7 3.5-.9-.9-3.2 1.7-3.2 3.6 0 3.7-3.7 3.2-8.7-1.3-1.6-1.5-2.9-1.8-5.2-1.3-3.1.7-4.3 2.8-3.8 6.9.2 1.6-.6 2.1-4.2 2.8-2.4.4-4.9 1.2-5.6 1.8-.7.6-2 .7-2.9.4-2.5-1-6.5 3.2-6 6.2.2 1.3 0 2.4-.5 2.4-.9 0-.5 7.2.6 10 .4.8.7 2.2.7 3.1.1.8.9 2.3 1.9 3.3.9 1 1.5 2.2 1.2 2.7-1 1.5.7 1 2.7-.8 1.7-1.5 1.8-1.5 1.8.5 0 2.4 1 2.8 2.7 1.1 1.7-1.7 5.5.7 4.8 3.1-.7 2.2 1 6 2.7 6 .6 0 1.7-.8 2.5-1.7 1.3-1.6 1.4-1.5.8 1.2-.4 1.6-.8 3.8-1 4.7-.4 2.1 2.4 3.3 3.1 1.3.5-1.2.9-1.1 2.3.7 1.7 2 1.9 2 4.1.5 1.9-1.3 2.7-1.4 3.8-.5 1.1 1 1.7.8 2.8-.7.8-1 1.7-1.6 2-1.2.8.8 6.5-2.1 7.9-3.9.6-.8 1.9-1.1 3.3-.8 2.6.7 2.8 1.7.6 3.5-2 1.7-4.4 6.3-4.4 8.6 0 1 1.2 2.9 2.6 4.3 2.3 2.2 3.5 2.4 11.3 2.5 7.2.1 9-.2 10.8-1.8 2.3-2 4.3-1.6 4.3.9 0 3.5 6.9-1.1 7-4.7 0-2.3 1.1-3 2.6-1.8 1.9 1.5 4.9.3 6.2-2.7 1.4-3-.3-7.1-4.4-10.3-1.5-1.2-2.3-2.1-1.8-2.2 3.8-.3 10.4-2.7 10.4-3.8 0-.3 1.6-.6 3.6-.6 5.3 0 5.9 2.4 4.4 16.1-1.4 11.7-.9 20.3 1.5 31.1.3 1.2.6 5.2.6 8.8.1 5.7-.3 7.1-2.7 10.8-4.1 6-4.8 7.9-2.6 7.5.9-.2 3-2.9 4.6-6.2 3.4-6.7 3.7-11.6 1.7-26.1-.7-5-1.2-13.1-1.1-18 .5-20.3.5-23.1-.2-25.5-.6-2.2-.3-2.7 2.1-3.8 1.9-.8 3.9-3.2 5.7-6.6 2.7-5.3 2.7-5.3 1.1-10.4-.9-2.8-1.7-5.8-1.7-6.7 0-2-5.1-8.5-6.7-8.5-.7 0-2.4 1.1-3.8 2.4-1.5 1.4-3.3 2.2-4.1 1.9-.8-.3-2.2.5-3.2 1.8-2.5 3-4.3 1.8-3.2-2.1.5-1.6.5-3.2.1-3.5-.5-.2-1.1-1.9-1.5-3.6-.4-2.4-1-3-2.2-2.5-.9.4-2.2.1-3-.5-1.6-1.3-4.5.1-7.3 3.7-2.9 3.7-1.7 4.3 1.8 1 2.9-2.8 5.5-2.8 4.4-.1-.6 1.7 1.2 2.1 2.2.5 1-1.7 2.4-.2 1.8 2-.3 1.2 0 2 .7 2 .8 0 1 .8.7 2.1-.6 2.3 1 7.9 2.4 7.9.5 0 1.6-1.4 2.5-3.1 1.2-2.4 2-3 3.6-2.6 1.5.4 3-.3 5-2.5s3.2-2.8 3.9-2.1c.8.8.7 1.8-.1 3.3-1.3 2.5-.5 3.9 1.2 2.2 2.2-2.2 3.1-1.2 2.4 2.8-.6 3.6-.4 4.2 1.6 4.9 1.4.5 1.7 1 1 1.5-.7.4-1.2 1.5-1.2 2.4 0 .9-.5 3.4-1.1 5.5-.8 3.1-1.4 3.8-3 3.4-1.3-.3-2.3.2-3 1.5-.6 1.1-1.3 1.7-1.7 1.4-.3-.4-1.5.3-2.7 1.4-2.1 2-2.3 2-3 .3-.5-1.5-.9-1.3-2.5 1.7-1.5 2.9-2 3.2-2.5 1.8-.9-2.3-2.2-2.3-3 .1-.4 1.2-1.9 2.1-4.3 2.6-2 .4-4 .9-4.4 1.2-1.2.7 1.1 4.3 2.7 4.3.8 0 2.6 1 4 2.3 2.1 1.8 2.5 2.8 2 5-.6 2.3-1.1 2.6-3.4 2-1.4-.3-2.8-1-2.9-1.5-.8-1.8-2.2.5-2.2 3.6 0 5-2 6.2-4.2 2.6-2.2-3.8-3.1-3.8-4.5-.1-.8 2.3-1.5 2.9-3.2 2.4-1.1-.3-2.1-1-2.1-1.6 0-.5-.9-.2-2 .8-2 1.8-2.1 1.8-3.4-.1-1.4-1.8-1.5-1.8-2.1-.2-.9 2.2-2.5 2.4-2.5.3s-1.6-1.9-2.5.3c-.6 1.5-.8 1.4-2-.8-.8-1.4-1.4-2.1-1.5-1.6 0 .6-.5.5-1.1-.1-1.3-1.3-.1-6.3 1.5-6.3 1.9 0 4.6-3.8 4.6-6.6 0-2.3-.3-2.5-2.5-2-2.3.6-2.5.4-2.5-2.9 0-4.8-2.6-4.7-3.5.2-.9 4.8-1.5 5.8-2.6 4.2-.8-1.2-1.1-1.1-1.9.1-.9 1.3-1.1 1.3-1.9.1-.8-1.2-1.2-1-2.2 1.2-1.4 3-1.9 3.3-3.8 1.4-1-1-1.6-.7-3 1.2-1.8 2.3-4.3 2.2-4-.2.4-3.5-.1-4-2.3-2.1-2.1 1.9-2.1 1.9-1.4-.6 1.4-5.2 1.5-6 .2-6-.8 0-1.9.7-2.6 1.5-1.9 2.3-4.3 0-2.9-2.7.8-1.4.8-2.3 0-3.1-.6-.6-1.1-1.9-1.1-2.9 0-2.3-1.3-2.3-4.7-.1-2.6 1.7-2.6 1.7-2.1-.5.6-2.3-1.5-3.2-2.7-1.1-1.1 1.6-4.2-1.7-5-5.4-.4-1.8-.9-3.8-1-4.5-.2-.7.3-1.6 1.2-1.9 1-.4 1.3-1.3.8-3-.8-3.4 1.1-5.6 3.6-4.2 1.3.7 1.9.6 1.9-.1 0-.6.8-1 1.7-.9 4.7.4 6.2-.3 8.3-3.6 1.3-2.1 2-4.4 1.7-5.6-.4-1.5-.2-1.9.8-1.5.8.3 1.9-.3 2.4-1.2.6-.9 1.1-1.2 1.1-.6s1.6 2.8 3.5 5c2.9 3.2 3.5 3.5 3.5 1.9.1-1.9.2-1.9 1.4-.3 1.6 2.2 3.6.5 3.6-3 0-1.5.7-2.6 1.9-2.9 1.7-.4 5.1-7.1 5.1-10 0-.6.7-1.3 1.5-1.7 2.4-.9 1.7-3.3-1.2-4.1-1.5-.3-3.1-1.2-3.6-1.8-.5-.9-1-.7-1.7.5-.6.9-1.7 1.5-2.4 1.2-.9-.3-1.7.3-2.1 1.5-.7 2.2-3 2.7-5.3 1.3-.9-.7-1-1.5-.3-3.5.9-2.2.8-2.7-.5-2.7-.8 0-1.4-.7-1.2-1.7.2-1.2-.4-1.7-2.7-1.7-2.8 0-3 .2-3.3 4.4-.2 2.5-.7 4.9-1.3 5.5-.6.5-.9.5-.9-.3 0-.7-.7-1.2-1.5-1.2s-1.4.3-1.4.7c.3 2-.2 2.4-1.7 1.2-1.3-1.1-1.8-1-2.6.5-1.4 2.6-2.8.3-2.8-4.8 0-3.3-.3-3.8-2-3.3-1.3.3-2 0-2-.8 0-2.2-1.9-2.8-2.7-.9-.7 1.9-6.3 7.3-7.5 7.4-.5 0-.8-.9-.8-2 0-1.4-.6-2-1.7-1.8-1.3.2-1.8-.4-1.9-2.2-.1-4.2-1.5-8-3-8-1.6 0-1.9-1.6-.3-2.5.5-.4.7-1.9.4-3.5-.5-2.2-.2-2.8 1.4-3.3 1.7-.4 2.1-1.3 2.1-5 0-5-1.2-6.6-3.5-4.7-1.2 1-1.5.9-1.5-.4 0-.9.5-1.6 1-1.6.7 0 .7-.6 0-2-.6-1.1-1.8-2-2.7-2-1.4 0-1.4-.3-.5-1.2 1-1 1.5-1 2.1.1.5.8 1.6 1.1 2.6.7 1.2-.4 1.5-1.3 1-3.5-.3-1.7-.2-3.2.4-3.6.6-.3 1.1-1.4 1.1-2.4 0-1.2.7-1.8 1.7-1.7 1.2 0 1.9-.7 2.1-2.1.3-2 .6-2.1 2.3-1 1.7 1 2.2.9 3-.6.6-.9 1.5-1.5 2-1.1 1.1.6 4.1-2.6 6.4-6.9 1.6-2.8 4-3.6 4.8-1.5.3 1 .9 1 2.5.1 1.8-1.1 2.3-1 3.7 1 .8 1.2 1.9 2.1 2.3 1.9.4-.1.7.4.7 1 0 .8 1 1.2 2.3 1 1.5-.2 2.2.2 2.2 1.4s.3 1.4 1.3.5c1-.8 1.7-.7 2.6.2 1 .9 1.5.8 2.7-.7 1.3-1.8 1.4-1.8 1.4-.2 0 1.3.5 1.6 1.6 1.2 1.2-.4 1.5-.2 1.1.9-.4.8-.1 1.8.6 2.2.7.5 1.2 1.5 1.2 2.3 0 .8 1.7 1.8 4.5 2.5 3.7.9 4.8.8 6-.4.8-.8 1.6-1.8 1.6-2.3.1-.4.2-1.2.3-1.7.2-1.6 4.1-2.3 5.7-1 2.1 1.7 5.4-1.5 5.4-5.3 0-1.6.7-4.2 1.5-5.7.8-1.6 1.2-3.1.9-3.4-.3-.2-2.3-.1-4.6.4-3.4.8-4.2.7-5.3-.8-.9-1.3-1.7-1.4-2.6-.7-1.6 1.2-5.9 1.6-5.9.6 0-.4.5-1.4 1-2.2 1.1-1.8-1.6-5.1-3.6-4.3-2 .7-4.8-6.2-4.6-11.5.1-2.5-.5-5.4-1.4-6.7-1.2-1.8-1.3-2.8-.4-4.4.6-1.2 1.4-2.1 1.8-2.2 3.4-.3 5-1.2 7.2-3.7 3.4-4 7-5.8 8.1-4.1.6 1 1 1 2.3 0 1.9-1.6 4.6-.8 4.6 1.4 0 1 .7 1.5 1.8 1.3 2.8-.5 5.2 2.2 4.5 5.3-.9 4.6 2.4 4.4 5.4-.4.5-.7 2.7-1.7 5.1-2.3 4-1.1 4.4-1 5.2 1 1.1 2.9 2.8 4.2 6.6 5 3.4.8 5.9-1 4.5-3.3-.6-1-1-1-1.6-.2-.5.9-1 .9-2.1 0-.8-.6-1.4-.8-1.4-.5 0 .4-.9.2-2-.4-2.6-1.4-2.5-2.8.5-7.2 3.1-4.5 3.1-4.4.1-5.2-3.5-.9-4.1-3.4-1.1-4.8 1.4-.6 2.7-2.3 3-3.9.4-1.6 1-2.9 1.4-2.9.4 0 1.3-1.2 2-2.7 1.1-2.4 1.4-2.6 2.2-1 .6.9 1.9 1.7 3 1.7s2.2.7 2.5 1.5c.4 1 1.3 1.3 2.5 1 1.3-.4 1.9-.1 1.9.9s.9 1.6 2.2 1.6c1.2 0 2.9.7 3.9 1.6 1.7 1.5 2.1 1.4 6.1-2 2.3-2 4.7-3.5 5.2-3.3.6.2 1 1.9.8 3.7-.2 2 .2 3.6 1 4.1.7.4 1.3 1.6 1.3 2.6 0 1.2.6 1.7 1.8 1.5 1.6-.3 1.7.2 1.2 3.7-.5 3.8-.4 4.2 2 5.1 1.4.5 2.4 1.4 2.1 1.8-.2.4-.1 1.4.4 2.2.7 1.2 1.3 1.1 3.3-.8 1.3-1.2 3.1-2.2 4-2.2.9 0 2.2-1.2 2.9-2.8 1.6-3.3 3.9-3.5 5.3-.5 1.1 2.6 4.3 3.1 5.1.8.6-1.4.8-1.3 1.9.1.6 1 2.3 1.8 3.6 1.9 1.8.1 2.4.8 2.4 2.5s.7 2.6 2.5 3c2.9.7 3 1.2.7 6.3-1.9 4-1.6 6 .8 5 1-.3 1.5.1 1.5 1.5 0 3.5-1 5-3.1 4.5-1.4-.4-1.9 0-1.9 1.6 0 2-.9 2.5-3.7 2.2-.7-.1-1.3.5-1.3 1.2 0 .9-1.4 1.7-3.3 2.1-1.9.3-4.2 1.2-5.2 2-1.9 1.3-1.8 1.5 1.2 4.2l3.2 2.8-2.6 2.4c-1.8 1.7-2.9 2-3.6 1.3-1.8-1.8-4.8-1.3-8.3 1.4-1.8 1.4-4.2 2.5-5.3 2.5-1.1 0-2.3.5-2.6 1.1-.5.7-1.3.5-2.5-.6-1.5-1.3-1.9-1.4-2.9-.1-1.1 1.3-1.7 1.3-4.6 0-3.3-1.3-3.5-1.3-5.1 1.1-.9 1.4-2.2 2.5-2.9 2.5-.8 0-2.8 3.1-4.6 7-1.7 3.8-3.8 7-4.6 7-.8 0-2.1 1.6-2.9 3.6-1.8 4.3-1.2 8.6 1.1 7.8 1.1-.5 1.5.1 1.5 2 0 1.7.5 2.6 1.6 2.6 1.3 0 1.5.7.9 4-.5 3.2-.4 4 .9 4 .8 0 1.8-.5 2.1-1 1.3-2.1 2.5-.9 2.5 2.4 0 1.9.5 3.8 1 4.1.7.4.7 1.1.2 1.8-.8 1.1-1.5 3.1-2.9 8.7-.9 3.5-.6 12.7.5 14.5.9 1.6 1.1.4 1.1-6 0-4.4.1-8.7.4-9.5 1.1-4.4 3.7-12.2 4.3-13.1.4-.7 1.2.1 2 2 1.5 3.5 2.8 3.9 5.2 1.4 1.6-1.6 1.7-1.5 2.1.2.2 1.1 1 3 1.8 4.2 1.9 2.8 1.3 6.9-1.8 13.8-4.3 9.4-3.4 10.3 1.2 1.3 2.2-4.4 3.2-7.9 3.5-12.2.2-4.5.8-6.4 2.5-8 1.6-1.5 2-1.7 1.6-.5-1.2 3.6.9 4 4.4.8 3.1-2.8 3.2-3 1-2.5-1.6.3-2.9-.1-3.7-1.1-1-1.5-1.5-1.4-4.1 1.5-3 3.3-4.3 3.3-4.3 0 0-2.2-1.6-2.3-3.6-.3-2.7 2.7-4.1 1.4-3.5-3.3.3-2-2.9-1.4-5 1l-1.8 2.3-.1-3.7c0-4.3-1.2-5.5-3.3-3.3-2.2 2.2-2.7 1.9-2.1-1.3.4-1.9.1-3.2-1-4.1-.9-.8-1.6-2-1.6-2.9 0-.9-.9-2.6-2.1-3.8-2.8-3-1.6-4.8 2.7-3.9 3.3.6 3.4.6 2.4-2.1-1.3-3.4-.6-5.4 1.9-5.4 1.6 0 1.9-.6 1.8-3.3-.2-2.4.2-3.1 1.4-2.9.9.1 2.1-.9 2.7-2.3 1.2-2.6 5.5-3.5 6.7-1.4.5.7 1.4.4 2.6-.7 1-.9 2-1.4 2-1.1.1.4.3 1.1.4 1.7.1.5.3 1.4.4 2 .2 1.8 1.9 1.1 2.6-1 .5-1.5 1.2-1.9 2.7-1.5 1.2.4 2.7 0 3.8-1 1.9-1.7 6-1.3 6 .6 0 .5.8.9 1.9.9 1 0 3 1.1 4.5 2.5s3.1 2.5 3.5 2.5c.5 0 2.5-1.4 4.6-3 2.1-1.7 4.1-3 4.4-3 .4 0 1.2-2 1.9-4.5 1.2-4.5 1.3-4.6 4.5-4 2.5.5 3.7.2 4.8-1.1 1.3-1.6 1.4-1.4 1.9 2.2.7 5.1 2.8 5.4 7.4.9C208 68 210 67.1 210 69c0 .5.6 1 1.4 1 1.9 0 2.5 1.9 1.5 5.4-.9 3.2-.8 3.6 1.4 4 1.9.2 4.7 2.5 4.7 3.8 0 .6-.9 2.3-2.1 3.9-1.3 1.8-1.8 3.6-1.4 4.7.4.9.9 2.8 1.1 4.2.8 4 2 4.5 5.9 2.7L226 97v2.5c0 1.5.6 2.5 1.4 2.5.8 0 1.6.6 1.9 1.2.7 2.2-1.4 8.1-3.9 11.1-1.3 1.6-2.4 3.3-2.4 3.8s-1 .7-2.3.4c-1.5-.4-2.8-.1-3.7 1-1.2 1.4-1.5 1.4-3.2-.2-1.9-1.7-2.9-1.2-4.1 2.1-.2.5-1.2.4-2.4-.2-2.3-1.3-3.3 0-3.3 4.3 0 2.6 1.7 3.5 6.6 3.5 2.3 0 3.4.5 3.4 1.4 0 2.1 1.7 2.8 3.9 1.7 1.4-.8 2.1-.8 2.4.2.6 1.7 4.2-1.6 6.2-6 1.7-3.5 4.2-5.3 5.4-3.7.8 1.2 2.6 1.6 8.2 1.9 3.5.2 4.8-.1 5.7-1.5 1.3-2.2-.6-3.4-2.9-1.9-2.5 1.6-4.9 1-4.9-1.1 0-2.2-1.5-2.7-2.3-.8-.3.7-.6.2-.6-1.1-.1-2.3-.2-2.3-1.9-.8-1 1-2.5 1.7-3.4 1.7-.8 0-2.1 1.1-2.8 2.5-.7 1.4-3.3 3.7-5.7 5.1-4.2 2.4-4.4 2.4-7.2.8-2-1.2-2.7-2.3-2.5-4.1.3-3.4 1-3.8 2.4-1.4 1.4 2.7 4 2.7 4 .1 0-1.7.3-1.9 1.9-1 2.8 1.5 3.1 1.3 4.2-2 .6-1.6 1.9-3.2 2.9-3.5 3.7-1.2 6.6-15.8 3.3-16.1-.7-.1-1.6-.2-1.9-.3-.4 0 .1-1.2 1-2.6 2-3.1 2-3.1-.7-3-1.2 0-3.5 1-5.1 2.2-3.5 2.8-4.9 2.1-4.4-2.3.2-1.9-.1-3.5-.7-3.7-.7-.3-.6-.8.1-1.8.6-.8 1.6-2.8 2.1-4.4.9-2.5.7-3.5-.8-5.4-1.1-1.3-2.5-2.1-3.3-1.8-1.1.4-1.3-.7-.9-5.6.4-5.1.3-6-.8-5-1.8 1.8-3.2 1.6-2.5-.2.7-1.9-.4-1.9-3.2.1-1.2.8-2.2 1-2.2.5 0-2-1.9-1.1-2.6 1.1-.8 3-3.4 5.9-4.5 5.2-.5-.3-.9-2.3-.9-4.5 0-4.2-1.4-5-3.6-2.2-1.3 1.7-1.5 1.7-2.5-.1-.9-1.5-1.3-1.6-2-.5-.8 1.2-1.2 1.1-2.3-.4-.7-.9-1.8-1.7-2.4-1.7-1 0-2.2 4.1-2.7 9-.2 1.9-6.7 9-8.3 9-.6 0-1.7-.8-2.4-1.8-.7-.9-3.1-2.6-5.2-3.7-2.9-1.5-3.5-2.1-2.2-2.3 1-.2 2.5.3 3.3 1.1 1.3 1.3 1.7 1.2 3.7-.7 1.2-1.1 3.1-2.6 4.1-3.2 1.7-1 1.8-1.2.2-4.4-2.2-4.3-2.1-5 .4-5 1.1 0 2.7-.7 3.5-1.5.8-.8 2.1-1.2 2.9-.9.9.4 1.6-.3 2.1-2 .5-2 1.1-2.5 2.4-2.1 1.8.6 2.2-.1 3.5-7.7.3-1.6-.1-3.2-1-4.2-1.3-1.3-1.4-2-.4-3.8 1.5-2.8 2.1-9.5.9-10.3-.5-.3-1.8.5-2.9 1.7l-2.1 2.2v-3.1c0-2.6-.5-3.1-2.9-3.6-2.2-.5-2.8-1.1-2.5-2.4.3-1.1-.3-2.3-1.5-3-1.8-1.2-2.1-1-2.7 1.2-.3 1.3-1.3 3-2.1 3.7-1.4 1.1-1.5 1-.9-1 .5-1.3.3-2.2-.3-2.2s-1.1-.6-1.1-1.3c0-.8-1.3-1.3-3.5-1.3-1.9 0-3.5.4-3.5.8 0 1-6.4 7.8-7.2 7.8-.3 0-.8-.9-1.1-2-.3-1.3-1.1-1.8-2-1.4-2.1.8-2.9-1-1.8-3.8.9-2.5.1-5-1.5-4.9-.5 0-.8-.9-.7-2 .2-1.3-.3-1.9-1.7-1.9-1.6 0-1.9-.5-1.4-2.9s.1-3.2-2-4.6c-2.6-1.7-2.7-1.7-4.1.1-.7 1-1.7 1.6-2.1 1.1-.4-.4-1.3.6-2 2.3-1.3 2.9-1.4 2.9-4.5 1.6-1.8-.8-3.6-2.3-4-3.4-.5-1.4-1.4-1.9-2.7-1.5-1.4.3-2.1-.2-2.5-1.8-.5-1.9-.8-2.1-2.2-.9-1.5 1.2-1.8 1.2-2.6-.3-1.2-2.1-4.8-2.2-5.4-.2z"/><path d="M106.4 93.6l-3.8 4.7-.9-2.6c-1-3.2-2.8-2.7-2 .6 1.1 4.3 2.4 5 5 2.5 2.8-2.7 6.7-8.7 6.1-9.4-.3-.2-2.2 1.7-4.4 4.2zM109.1 97.4c-3.4 3.5-3.8 5.2-1 4.1 1.9-.8 5.1-5.3 4.7-6.6-.2-.5-1.9.6-3.7 2.5zM96.6 96.8c-.9 1.5.2 5.2 1.5 5.2 1.1 0 1.1-1.7 0-4.4-.5-1.4-1-1.6-1.5-.8zM116.6 98.9c-.4.6 0 1.9.9 2.8 1.1 1.1 1.5 2.6 1.1 4.5-.5 2.8.7 4 1.7 1.5 1.4-3.6-2-11.6-3.7-8.8zM111 101c0 .7.8 1.8 1.7 2.5 1.2.9 1.8 2.7 1.8 5.9 0 2.5.3 4.6.7 4.6 1.4 0 2.1-5.1 1.2-8.2-.9-3.2-5.4-7.2-5.4-4.8zM74.3 102.6c-1.8.8-3.3 2.1-3.3 2.9 0 2 .9 1.9 4.5-.5 4.1-2.7 4.5-2.5 3.8 1.5-.4 2.7-.2 3.5 1 3.5.8 0 1.7-.7 2.1-1.5.9-2.6 2.7-1.7 2 1-.6 2.5.8 3.5 2.1 1.5 1.2-1.9 2.2-1 1.7 1.6-.4 2 .1 3.1 1.8 4.4 2.1 1.6 2.2 2 1.1 5.3-1.5 4.3-3.4 6.1-6.1 5.4-1-.3-2.4.1-3.1.9-.6.8-1 1.4-.8 1.4.2.1 2 .3 3.9.6 3.2.4 3.7.2 5.7-3.5 2.2-3.7 2.5-3.9 6.5-3.6 2.3.2 4.4.7 4.5 1.2 1 3 4.5 7.3 6 7.3 1.4 0 1.4-.3-.4-2.3-1.1-1.2-2.8-3.7-3.7-5.5-1.2-2.3-2.3-3.2-4-3.2-3.5 0-5.6-1-5.6-2.7 0-1 .6-1.2 2-.8 1.1.3 3.2.8 4.6 1.1 2.6.5 2.7.4 2.2-4.6-.3-2.8-1.1-5.7-1.7-6.3-1-.9-1.1-.2-.6 3.5.8 5.3.2 5.7-4.5 3.3-1.9-1-3.1-1.1-3.5-.5-1.2 2-2.6-.2-2.3-3.8.3-3.1 0-3.6-1.5-3.4-1 .2-2-.6-2.5-1.8-.7-2-.9-2-2.1-.6-1.9 2.3-2.9 2-2.3-.9.4-2.1.1-2.5-1.9-2.4-1.3 0-3.9.7-5.6 1.5zM105.6 109.8c.1 3.7.9 8.4 1.8 10.6.9 2.1 1.6 4.5 1.6 5.3 0 2.8 2.1 5.3 6 7.3 2.2 1.1 4 2.7 4 3.4 0 .7.7 1.9 1.6 2.7 1.3 1.1 1.4.9.8-1.7-.8-3.3-1.7-4.3-5.9-6.8-3.8-2.2-7.5-11.6-7.8-19.8-.1-3.1-.7-6.2-1.2-6.7-.7-.7-1 1.2-.9 5.7zM122 111.2c0 1.2-1.2 4.1-2.5 6.3-1.4 2.2-2.5 5.3-2.5 6.9 0 3.3 1.2 2.8 1.7-.7.2-1.2 1.4-3.8 2.7-5.8 2.8-4.2 3.6-8 1.9-8.6-.8-.3-1.3.4-1.3 1.9zM172.3 120.3c-1.2 1.3-2.3 4.2-2.7 7.1-.6 5.7-.4 5.4-7.3 9.5-4.6 2.7-5.3 2.8-5.7 1.3-.3-1-.1-3.3.4-5.2 1.2-4.3 1.3-6 .1-6-.4 0-1.1 1.9-1.4 4.3-.3 2.4-1.5 6.5-2.7 9.2-2.1 5-2.2 9-.1 4.5.7-1.4 2.1-2.7 3.3-2.7 1.1-.1 4.8-2 8.3-4.3 6.2-4 6.2-4.1 6.9-9.7.4-3.2 1.4-6.5 2.3-7.5.9-1 1.4-2 1.1-2.3-.2-.3-1.4.5-2.5 1.8zM175.5 124.6c-2.9 7-.2 10.1 4.8 5.6 2.2-2 1.6-2.5-1.7-1.3-2.9 1.2-3.1.8-1.5-3.8s.3-5-1.6-.5zM126.1 126.2c-2.4 5.4-3.1 12.8-1.3 12.8.5 0 .9-1.9 1-4.2.1-2.3 1-5.9 2.1-8 1-2.1 1.5-4.1 1-4.4-.5-.3-1.8 1.4-2.8 3.8zM246.6 124.6c-1.9 1.8-2.1 6.4-.4 6.4.6 0 2.2-1 3.5-2.1 2.8-2.7 3.3-1.8 3.7 7.5.1 4 .7 7 1.4 7.5.7.4 1.1 1.8.8 3.2-.2 1.3.3 3.1 1.1 4 1.3 1.5 1.1 1.9-1.5 3.7-1.6 1.2-3.3 3.7-4 6-1.1 3.6-1.6 4-5.3 4.6-3.3.5-4.2 1.2-5.1 3.6-1 3-3.1 3.9-4.3 2-1-1.6-3.5-1.2-3.5.5 0 1.5-2 1.4-6.9-.1-1.8-.6-5.7 2-7.1 4.6-1.4 2.6-.4 6.1 1.5 5.4.8-.3 1.2.1 1.2 1.3-.1 1 .4 1.7 1.1 1.5.6-.1 1.7-.3 2.4-.5.7-.1 1.3.4 1.4 1 .1.7.2 1.8.3 2.3.1.7.7.7 2 0 4.2-2.2 5.2-1.2 2.6 2.6-2.2 3.3-3 5.4-2.6 7.6 0 .4-1 .2-2.4-.4-2-.9-2.8-.8-4.3.5-1.7 1.6-2 1.5-4.2-.8-1.7-1.8-2.7-2.2-3.6-1.4-.9.7-1.9.7-3.3-.1-1.2-.6-2.1-.9-2.2-.8 0 .2-.2 1.4-.5 2.7-.2 1.3-1.1 2.9-1.8 3.5-.8.6-1.6 2-1.8 3.1-.4 2.1-.6 2.1-5 1-2.3-.6-2.7-.3-3.3 2.4-.6 2.8-.8 2.9-3.1 1.9-1.9-.9-2.8-.8-4.2.5-2 1.8-6.2 2.3-6.2.7 0-.5-1.4-2.3-3-4-2.4-2.5-3.4-2.9-4.5-2-.9.7-1.5.8-2 0-.3-.5-1.4-1-2.3-1-1.5 0-5.2-4.9-5.2-7 0-.4.9-1 2-1.3 2-.5 5-6.1 5-9.4 0-1-.9-2.4-2.1-3.1-1.8-1.1-2.4-1.1-3.9.3-1.5 1.4-1.9 1.4-2.9.1-1.6-1.9-3.5-1.1-5 2-.8 1.9-1.6 2.4-3 1.9-1.3-.4-2.3 0-2.9 1.1-.8 1.5-1.2 1.2-2.5-1.7-.9-1.9-1.7-4.3-1.9-5.3-.2-1.1-.9-2.1-1.6-2.4-1-.3-1.2.5-.9 2.9.3 2.5-.5 5-2.8 9.4l-3.2 6 .7 24c.6 21.1.9 24.5 2.7 28.5 2.2 4.8 5.7 8.7 6.7 7.2.3-.5-.6-2.4-2-4.3-4.4-5.8-4.7-7.6-4.9-29.5-.1-11.6-.5-22-.9-23.1-.4-1.4.3-3.7 2.1-6.9 2.9-4.8 5.3-6.7 5.3-4.2 0 .7.5 2 1 2.8.8 1.3 1.1 1.2 2.4-.5 1.3-1.7 1.7-1.8 2.5-.6 1.2 1.9 3.6.1 4.5-3.4.8-3.1 2.4-3.2 3.5-.3l.8 2.2 1.9-2.2c2.6-3.1 3.1-2.8 2.9 1.8-.2 4.6-1.2 6.1-2.5 4-1-1.7-1.2-1.5-3.4 2.8-1.7 3.3-1.4 5.8.6 4.6 1.4-.9 2.8 1.5 2.8 4.8 0 3 .9 3.5 2.7 1.7.8-.8 1.5-.6 2.4.9 1.2 1.9 1.5 2 3 .6s1.9-1.2 4 1.8c1.3 1.8 2.3 3.9 2.1 4.5-.3 1.5 1.4 1.7 2.3.3 1-1.7 3.5-1.1 3.5.8 0 .9.9 2.3 2.1 3 1.9 1.2 2 1.1 1.3-2.4-.8-4.4.9-5.9 4.3-3.7 1.3.9 2.3 1.1 2.3.5 0-.6.5-2.3 1-3.8.8-2.1 1.4-2.4 2.2-1.6.7.7 2 1.2 2.9 1.2 2.1 0 6.9-6.2 6.9-8.9 0-2.5 1.5-2.8 2.4-.4.6 1.5.8 1.5 2.4 0 1.5-1.6 1.7-1.5 3.3 1.5l1.7 3.3 1.3-2.7c1.4-3.2 3.4-3.5 6-1.2 2 1.8 3.9 1.1 3.9-1.4 0-.9 1.3-4.5 2.9-7.9 3.2-6.7 2.6-8.2-2.4-6.3-2.2.8-2.5.7-2.5-1.1 0-1.7-.5-2-2.5-1.7-1.8.4-2.5.1-2.6-1.1-.4-4.8 1.3-7.1 3.5-4.8 1.7 1.7 4.9 1.3 6.7-.9.8-1 1.6-1.1 3.1-.3 2.5 1.4 4.8.5 4.8-1.9 0-2.5 4.7-4.7 6.6-3.1 1.1.9 1.7.5 2.8-2.3.8-1.9 1.8-4.6 2.1-6 .4-1.6 1.6-2.9 3-3.2 1.8-.5 2.6-1.6 3.1-4.1.3-2 .2-4.1-.4-4.8-.6-.7-.8-2.4-.5-3.7.4-1.5.1-2.7-1.1-3.6-1.1-.8-1.3-1.4-.7-1.9.7-.4.8-1.2.2-2.4-.6-1-1-2.6-1-3.7 0-8.1-.3-9.4-2.2-9.4-1.1 0-2.9.9-4.1 2-1.2 1.1-2.4 1.7-2.7 1.4-.3-.3.2-1.2 1.2-1.9s1.4-1.6.8-1.9c-.5-.3-1.7.1-2.5 1z"/><path d="M186.5 131.5c-1.7.7-3.8 2.1-4.7 3.2-1.5 1.7-1.4 2.1 2.8 7.6 2.4 3.2 4.4 7 4.4 8.3 0 1.8.6 2.4 2.3 2.6 3 .2 5.9-.1 7.7-.8 2.2-.9-1.8-2.4-4.6-1.7-1.7.3-2.6-.7-5.3-5.6-1.7-3.3-4.1-6.7-5.1-7.4-1.9-1.3-1.9-1.4.3-2.4 6.4-3 7.7-3.7 7.7-4.5 0-1.1-1.9-.9-5.5.7zM113.7 138.7c-.8 1.2 3.3 7.4 4.4 6.7 1.4-.8 1.1-1.7-1.5-4.7-1.3-1.5-2.7-2.4-2.9-2zM76 140.5c0 1 .8 2.4 1.8 3.1 1.4 1 1.5 1.6.5 3.1-3.2 4.8-6.1 10-6.8 12.3-.7 2.2-.6 2.3.9 1.1.9-.7 1.6-2.2 1.6-3.2 0-1.1.5-1.9 1-1.9.6 0 1.8-1.6 2.7-3.5.9-1.9 1.9-3.5 2.2-3.5.3 0 1.2-.4 2-.9 1.1-.7.6-1.7-2.3-4.7-2.7-2.8-3.6-3.3-3.6-1.9zM81 140.2c0 1.9 1.8 4.3 2.5 3.6.9-.9-.4-4.8-1.6-4.8-.5 0-.9.6-.9 1.2zM169.8 141.9c-1.3 1.1-4.7 3-7.6 4.2-5.8 2.5-7.3 5.4-2.1 3.9 1.7-.5 4.3-1.7 5.8-2.7 3.6-2.4 9.3-4.4 11.1-3.8.8.3 2.8 2.6 4.3 5.2 3.4 5.5 4.7 5.1 1.8-.6-4.1-7.9-8.5-9.9-13.3-6.2zM86.3 150.1c-3.3 1-5.2 3.2-9.6 11.1-2.1 3.8-2.3 4.8-1.2 4.8.9 0 2.7-2.5 4.3-5.7 2.4-5.1 3.2-6 7-7.3 2.4-.8 4.4-1.9 4.4-2.5-.1-1.3-1.2-1.4-4.9-.4zM161.5 154.6c-2.2 1.7-3.9 1.8-2.9.3.4-.7-.1-1-1.2-.7-1.1.2-2.7 2-3.6 4-1.2 2.4-2.3 3.5-3.2 3.2-.9-.4-1.7.9-2.5 4-1.4 5.5-1.4 6.9-.1 6.1.6-.3 1-1.5 1-2.5s.7-2.3 1.5-2.7c.8-.5 2.4-2.6 3.5-4.8 1.1-2.2 2-3.4 2-2.7 0 1.9 2.1 1.4 4.7-1l2.3-2.1v2.1c0 2.6.3 2.7 3.6.6 2.3-1.6 2.6-1.6 3.7 0s1.5 1.6 4.5.1c1.7-.9 4.1-1.4 5.2-1 1.2.4 2 .2 2-.5 0-1.8-2.9-2.4-6.4-1.3-2.6.8-3.5.7-4.2-.5-.9-1.3-1.3-1.3-3.7.3-2.4 1.5-2.7 1.5-2.7.2 0-2.3-1.3-2.7-3.5-1.1zM140.9 168.1c-1.6 7-.9 9.6 1 3.6 1.7-5.6 2.2-9.5 1.4-10-.5-.3-1.6 2.6-2.4 6.4z"/></svg>